<svg style="display:none;" width="8px" height="8px" viewBox="0 0 8 8" version="1.1" xmlns="http://www.w3.org/2000/svg" xmlns:xlink="http://www.w3.org/1999/xlink">
  <symbol id="d-svg" viewBox="0 0 8 8">
    <g stroke="none" stroke-width="1" fill="none" fill-rule="evenodd">
      <g id="d" transform="translate(0.000000, -2.000000)" fill="#000000">
        <path d="M5.47,7.2 C5.5,6.73 5.5,5.99 5.47,5.51 C5.36,3.77 4.53,3.19 3.39,3.19 L3.16,3.19 C3.01,3.19 2.71,3.54 2.71,3.69 L2.71,9.02 C2.71,9.17 3.07,9.5 3.19,9.5 L3.43,9.5 C4.51,9.5 5.36,8.94 5.47,7.2 Z M7.16,6.34 C7.16,8.45 5.31,10 3.43,10 L0.4,10 L0.4,9.63 L0.56,9.63 C0.71,9.63 1.11,9.23 1.11,9.05 L1.11,3.67 C1.11,3.5 0.69,3.09 0.56,3.09 L0.4,3.09 L0.4,2.72 L3.41,2.72 C5.22,2.72 7.16,4.14 7.16,6.34 Z" id="D"></path>
      </g>
    </g>
  </symbol>
</svg>
