<svg style="display:none;" width="7px" height="8px" viewBox="0 0 7 8" version="1.1" xmlns="http://www.w3.org/2000/svg" xmlns:xlink="http://www.w3.org/1999/xlink">
  <symbol id="e-svg" viewBox="0 0 7 8">
    <g stroke="none" stroke-width="1" fill="none" fill-rule="evenodd">
      <g id="e" transform="translate(0.000000, -2.000000)" fill="#000000">
        <path d="M6.08,2.72 L6.08,4.71 L5.71,4.71 C5.71,4.51 4.64,3.2 4.47,3.2 L2.9,3.2 C2.84,3.2 2.72,3.34 2.72,3.4 L2.72,6.03 L3.5,6.03 C3.65,6.03 4.31,5.43 4.31,5.28 L4.31,5.1 L4.73,5.1 L4.73,7.49 L4.31,7.49 L4.31,7.28 C4.31,7.12 3.65,6.52 3.5,6.52 L2.72,6.52 L2.72,9.28 C2.72,9.34 2.84,9.5 2.89,9.5 L4.47,9.5 C4.85,9.5 6.4,7.84 6.4,7.62 L6.8,7.62 L6.34,10 L0.41,10 L0.41,9.63 L0.59,9.63 C0.74,9.63 1.12,9.22 1.12,9.06 L1.12,3.69 C1.12,3.52 0.7,3.09 0.57,3.09 L0.4,3.09 L0.4,2.72 L6.08,2.72 Z" id="E"></path>
      </g>
    </g>
  </symbol>
</svg>
