<svg style="display:none;" width="8px" height="9px" viewBox="0 0 8 9" version="1.1" xmlns="http://www.w3.org/2000/svg" xmlns:xlink="http://www.w3.org/1999/xlink">
  <symbol id="g-svg" viewBox="0 0 8 9">
    <g stroke="none" stroke-width="1" fill="none" fill-rule="evenodd">
      <g id="g" transform="translate(0.000000, -2.000000)" fill="#000000">
        <path d="M4.12,3.1 C3.13,3.08 2.3,3.66 2.13,5.36 C2.07,5.97 2.07,6.66 2.14,7.28 C2.28,8.55 3.05,9.47 4.19,9.47 C4.89,9.47 5.37,9.09 5.52,8.74 L5.52,7.68 C5.52,7.54 5.11,7.09 5.02,7.09 L4.09,7.09 L4.09,6.7 L7.86,6.7 L7.86,7.08 L7.52,7.08 C7.43,7.08 7.01,7.52 7.01,7.66 L7.01,10 L6.92,10 L6.07,9.16 C5.69,9.67 5.08,10.13 4.14,10.13 C1.8,10.13 0.4,8.5 0.41,6.28 C0.42,4.13 1.86,2.51 4.02,2.59 C4.76,2.62 5.34,2.92 6.01,2.92 C6.17,2.92 6.37,2.86 6.47,2.72 L6.87,2.72 L6.87,5.21 L6.46,5.21 C6.46,4.85 5.37,3.13 4.12,3.1 Z" id="G">
        </path>
      </g>
    </g>
  </symbol>
</svg>
