<svg style="display:none;" width="8px" height="9px" viewBox="0 0 8 9" version="1.1" xmlns="http://www.w3.org/2000/svg" xmlns:xlink="http://www.w3.org/1999/xlink">
  <symbol id="n-svg" viewBox="0 0 8 9">
    <g stroke="none" stroke-width="1" fill="none" fill-rule="evenodd">
      <g id="n" transform="translate(0.000000, -2.000000)" fill="#000000">
        <path d="M6.96,3.77 L6.96,10.19 L1.88,4.1 L1.85,4.1 L1.85,8.87 C1.85,9.03 2.43,9.63 2.55,9.63 L2.92,9.63 L2.92,10 L0.4,10 L0.4,9.63 L0.54,9.63 C0.67,9.63 1.24,9.03 1.24,8.87 L1.24,3.75 C1.24,3.6 0.78,3.09 0.68,3.09 L0.52,3.09 L0.52,2.72 L2.71,2.72 L6.32,7.18 L6.37,7.18 L6.37,3.77 C6.37,3.61 5.88,3.09 5.76,3.09 L5.41,3.09 L5.41,2.72 L7.77,2.72 L7.77,3.09 L7.56,3.09 C7.43,3.09 6.96,3.61 6.96,3.77 Z" id="N"></path>
      </g>
    </g>
  </symbol>
</svg>
